<svg width="178" height="45" viewBox="0 0 178 45" fill="none" xmlns="http://www.w3.org/2000/svg">
<mask id="path-1-outside-1_241_2" maskUnits="userSpaceOnUse" x="0" y="16" width="172" height="10" fill="black">
<rect fill="white" y="16" width="172" height="10"/>
<path d="M0 16H172V22H0V16Z"/>
</mask>
<path d="M0 16H172V22H0V16Z" fill="black"/>
<path d="M172 18H0V26H172V18Z" fill="white" mask="url(#path-1-outside-1_241_2)"/>
<mask id="path-3-inside-2_241_2" fill="white">
<path d="M164 0L178 1.17698e-09L178 45L164 45L164 0Z"/>
</mask>
<g filter="url(#filter0_i_241_2)">
<path d="M164 0L178 1.17698e-09L178 45L164 45L164 0Z" fill="#D9D9D9"/>
</g>
<path d="M178 45L178 47L180 47L180 45L178 45ZM176 1.00884e-09L176 45L180 45L180 1.34512e-09L176 1.00884e-09ZM178 43L164 43L164 47L178 47L178 43Z" fill="black" mask="url(#path-3-inside-2_241_2)"/>
<defs>
<filter id="filter0_i_241_2" x="164" y="0" width="15" height="46" filterUnits="userSpaceOnUse" color-interpolation-filters="sRGB">
<feFlood flood-opacity="0" result="BackgroundImageFix"/>
<feBlend mode="normal" in="SourceGraphic" in2="BackgroundImageFix" result="shape"/>
<feColorMatrix in="SourceAlpha" type="matrix" values="0 0 0 0 0 0 0 0 0 0 0 0 0 0 0 0 0 0 127 0" result="hardAlpha"/>
<feOffset dx="1" dy="1"/>
<feGaussianBlur stdDeviation="1"/>
<feComposite in2="hardAlpha" operator="arithmetic" k2="-1" k3="1"/>
<feColorMatrix type="matrix" values="0 0 0 0 1 0 0 0 0 1 0 0 0 0 1 0 0 0 1 0"/>
<feBlend mode="normal" in2="shape" result="effect1_innerShadow_241_2"/>
</filter>
</defs>
</svg>
