<svg width="27" height="28" viewBox="0 0 27 28" fill="none" xmlns="http://www.w3.org/2000/svg">
<g clip-path="url(#clip0_46_24)">
<path d="M26.4795 4.62112C27.274 3.87737 27.1475 2.77268 26.1912 2.15471C25.235 1.53674 23.8147 1.63518 23.0201 2.37893L13.4998 11.2656L3.97951 2.37893C3.18498 1.63518 1.76466 1.53674 0.808415 2.15471C-0.147835 2.77268 -0.274397 3.87737 0.520134 4.62112L10.5678 14L0.520134 23.3789C-0.274397 24.1227 -0.147835 25.2274 0.808415 25.8453C1.76466 26.4633 3.18498 26.3649 3.97951 25.6211L13.4998 16.7344L23.0201 25.6211C23.8147 26.3649 25.235 26.4633 26.1912 25.8453C27.1475 25.2274 27.274 24.1227 26.4795 23.3789L16.4319 14L26.4795 4.62112Z" fill="black"/>
</g>
<defs>
<clipPath id="clip0_46_24">
<rect width="27" height="28" fill="white"/>
</clipPath>
</defs>
</svg>
